<mxfile host="app.diagrams.net" modified="2023-07-11T07:09:27.516Z" agent="Mozilla/5.0 (X11; Linux x86_64) AppleWebKit/537.36 (KHTML, like Gecko) Chrome/114.0.0.0 Safari/537.36" etag="YXPIgvxmETDp2iiM67iB" version="21.6.1" type="github">
  <diagram name="第 1 页" id="jlxmokwsTpVfqcsCxAWr">
    <mxGraphModel dx="2261" dy="1940" grid="1" gridSize="10" guides="1" tooltips="1" connect="1" arrows="1" fold="1" page="1" pageScale="1" pageWidth="827" pageHeight="1169" math="0" shadow="0">
      <root>
        <mxCell id="0" />
        <mxCell id="1" parent="0" />
        <mxCell id="qPuq1UGvSkW3Ukqx3j4F-33" value="" style="rounded=0;whiteSpace=wrap;html=1;fillColor=#eeeeee;strokeColor=#36393d;" vertex="1" parent="1">
          <mxGeometry x="260" y="200" width="550" height="600" as="geometry" />
        </mxCell>
        <mxCell id="wX64DrgatRNQEiag2DZ2-1" value="&lt;font style=&quot;font-size: 19px;&quot;&gt;wy_k8s&lt;/font&gt;" style="rounded=0;whiteSpace=wrap;html=1;fillColor=#dae8fc;strokeColor=#6c8ebf;" parent="1" vertex="1">
          <mxGeometry x="222" y="10" width="146" height="80" as="geometry" />
        </mxCell>
        <mxCell id="wX64DrgatRNQEiag2DZ2-2" value="&lt;font style=&quot;font-size: 18px;&quot;&gt;rancher&lt;/font&gt;" style="ellipse;shape=cloud;whiteSpace=wrap;html=1;fillColor=#d5e8d4;strokeColor=#82b366;" parent="1" vertex="1">
          <mxGeometry x="462" y="10" width="120" height="80" as="geometry" />
        </mxCell>
        <mxCell id="wX64DrgatRNQEiag2DZ2-4" value="" style="shape=flexArrow;endArrow=classic;html=1;rounded=0;startArrow=block;" parent="1" edge="1">
          <mxGeometry width="50" height="50" relative="1" as="geometry">
            <mxPoint x="385.5" y="50" as="sourcePoint" />
            <mxPoint x="462.5" y="50" as="targetPoint" />
          </mxGeometry>
        </mxCell>
        <mxCell id="wX64DrgatRNQEiag2DZ2-5" value="&lt;font size=&quot;1&quot; style=&quot;&quot;&gt;&lt;b style=&quot;font-size: 16px;&quot;&gt;rancher&lt;/b&gt;&lt;/font&gt;" style="ellipse;shape=cloud;whiteSpace=wrap;html=1;fillColor=#d5e8d4;strokeColor=#82b366;" parent="1" vertex="1">
          <mxGeometry x="827" y="450" width="120" height="80" as="geometry" />
        </mxCell>
        <mxCell id="wX64DrgatRNQEiag2DZ2-6" value="&lt;span style=&quot;font-size: 19px;&quot;&gt;&lt;b&gt;ai_queue client&lt;/b&gt;&lt;/span&gt;" style="rounded=0;whiteSpace=wrap;html=1;fillColor=#dae8fc;strokeColor=#6c8ebf;" parent="1" vertex="1">
          <mxGeometry x="40" y="450" width="146" height="80" as="geometry" />
        </mxCell>
        <mxCell id="qPuq1UGvSkW3Ukqx3j4F-32" style="edgeStyle=orthogonalEdgeStyle;rounded=0;orthogonalLoop=1;jettySize=auto;html=1;shape=flexArrow;" edge="1" parent="1" source="wX64DrgatRNQEiag2DZ2-7" target="wX64DrgatRNQEiag2DZ2-16">
          <mxGeometry relative="1" as="geometry" />
        </mxCell>
        <mxCell id="wX64DrgatRNQEiag2DZ2-7" value="&lt;span style=&quot;font-size: 19px;&quot;&gt;&lt;b&gt;server入口&lt;/b&gt;&lt;/span&gt;" style="rounded=0;whiteSpace=wrap;html=1;fillColor=#fff2cc;strokeColor=#d6b656;" parent="1" vertex="1">
          <mxGeometry x="290" y="450" width="146" height="80" as="geometry" />
        </mxCell>
        <mxCell id="wX64DrgatRNQEiag2DZ2-8" value="&lt;b&gt;&lt;font style=&quot;font-size: 16px;&quot;&gt;http&lt;/font&gt;&lt;/b&gt;" style="text;html=1;align=center;verticalAlign=middle;resizable=0;points=[];autosize=1;strokeColor=none;fillColor=none;" parent="1" vertex="1">
          <mxGeometry x="402.5" y="10" width="50" height="30" as="geometry" />
        </mxCell>
        <mxCell id="wX64DrgatRNQEiag2DZ2-10" value="" style="shape=flexArrow;endArrow=classic;html=1;rounded=0;startArrow=block;exitX=1;exitY=0.5;exitDx=0;exitDy=0;entryX=0;entryY=0.5;entryDx=0;entryDy=0;" parent="1" edge="1" target="wX64DrgatRNQEiag2DZ2-7" source="wX64DrgatRNQEiag2DZ2-6">
          <mxGeometry width="50" height="50" relative="1" as="geometry">
            <mxPoint x="227" y="490" as="sourcePoint" />
            <mxPoint x="307" y="490" as="targetPoint" />
          </mxGeometry>
        </mxCell>
        <mxCell id="wX64DrgatRNQEiag2DZ2-11" value="&lt;span style=&quot;font-size: 18px;&quot;&gt;&lt;b&gt;RPC&lt;/b&gt;&lt;/span&gt;" style="text;html=1;align=center;verticalAlign=middle;resizable=0;points=[];autosize=1;strokeColor=none;fillColor=none;" parent="1" vertex="1">
          <mxGeometry x="210" y="445" width="60" height="40" as="geometry" />
        </mxCell>
        <mxCell id="wX64DrgatRNQEiag2DZ2-15" value="&lt;font style=&quot;font-size: 16px;&quot;&gt;&lt;b&gt;排队信息\目前资源使用量&lt;/b&gt;&lt;/font&gt;" style="text;html=1;align=center;verticalAlign=middle;resizable=0;points=[];autosize=1;strokeColor=none;fillColor=none;" parent="1" vertex="1">
          <mxGeometry x="298.5" y="400" width="200" height="30" as="geometry" />
        </mxCell>
        <mxCell id="wX64DrgatRNQEiag2DZ2-16" value="&lt;font style=&quot;font-size: 16px;&quot;&gt;&lt;b&gt;数据仓库&lt;/b&gt;&lt;/font&gt;" style="shape=cylinder3;whiteSpace=wrap;html=1;boundedLbl=1;backgroundOutline=1;size=15;fillColor=#f8cecc;strokeColor=#b85450;" parent="1" vertex="1">
          <mxGeometry x="322.5" y="675" width="80" height="115" as="geometry" />
        </mxCell>
        <mxCell id="wX64DrgatRNQEiag2DZ2-18" value="&lt;font style=&quot;font-size: 16px;&quot;&gt;&lt;b&gt;每个任务的信息记录,用于分析&lt;/b&gt;&lt;/font&gt;" style="text;html=1;align=center;verticalAlign=middle;resizable=0;points=[];autosize=1;strokeColor=none;fillColor=none;" parent="1" vertex="1">
          <mxGeometry x="260" y="630" width="240" height="30" as="geometry" />
        </mxCell>
        <mxCell id="wX64DrgatRNQEiag2DZ2-19" value="" style="shape=flexArrow;endArrow=classic;html=1;rounded=0;startArrow=none;startFill=0;entryX=0.1;entryY=0.513;entryDx=0;entryDy=0;entryPerimeter=0;exitX=1;exitY=0.5;exitDx=0;exitDy=0;exitPerimeter=0;" parent="1" edge="1" target="wX64DrgatRNQEiag2DZ2-5" source="qPuq1UGvSkW3Ukqx3j4F-8">
          <mxGeometry width="50" height="50" relative="1" as="geometry">
            <mxPoint x="720" y="490" as="sourcePoint" />
            <mxPoint x="867" y="490" as="targetPoint" />
          </mxGeometry>
        </mxCell>
        <mxCell id="wX64DrgatRNQEiag2DZ2-20" value="&lt;span style=&quot;font-size: 16px;&quot;&gt;&lt;b&gt;HTTP&lt;/b&gt;&lt;/span&gt;" style="text;html=1;align=center;verticalAlign=middle;resizable=0;points=[];autosize=1;strokeColor=none;fillColor=none;" parent="1" vertex="1">
          <mxGeometry x="740" y="450" width="70" height="30" as="geometry" />
        </mxCell>
        <mxCell id="wX64DrgatRNQEiag2DZ2-22" value="" style="shape=flexArrow;endArrow=classic;startArrow=classic;html=1;rounded=0;width=11;startSize=2.83;endSize=5.4;entryX=0.5;entryY=1;entryDx=0;entryDy=0;exitX=0.596;exitY=0;exitDx=0;exitDy=0;exitPerimeter=0;" parent="1" edge="1" target="wX64DrgatRNQEiag2DZ2-25" source="wX64DrgatRNQEiag2DZ2-7">
          <mxGeometry width="100" height="100" relative="1" as="geometry">
            <mxPoint x="389" y="434" as="sourcePoint" />
            <mxPoint x="389" y="380" as="targetPoint" />
          </mxGeometry>
        </mxCell>
        <mxCell id="qPuq1UGvSkW3Ukqx3j4F-30" style="edgeStyle=orthogonalEdgeStyle;rounded=0;orthogonalLoop=1;jettySize=auto;html=1;entryX=0;entryY=0.5;entryDx=0;entryDy=0;shape=flexArrow;exitX=0.847;exitY=0.489;exitDx=0;exitDy=0;exitPerimeter=0;" edge="1" parent="1" source="wX64DrgatRNQEiag2DZ2-25" target="wX64DrgatRNQEiag2DZ2-26">
          <mxGeometry relative="1" as="geometry" />
        </mxCell>
        <mxCell id="wX64DrgatRNQEiag2DZ2-25" value="&lt;font style=&quot;font-size: 16px;&quot;&gt;&lt;b&gt;redis&lt;/b&gt;&lt;/font&gt;" style="shape=dataStorage;whiteSpace=wrap;html=1;fixedSize=1;fillColor=#e1d5e7;strokeColor=#9673a6;" parent="1" vertex="1">
          <mxGeometry x="307.5" y="280" width="137.5" height="90" as="geometry" />
        </mxCell>
        <mxCell id="wX64DrgatRNQEiag2DZ2-26" value="&lt;font style=&quot;font-size: 16px;&quot;&gt;&lt;b&gt;中台AI看板(各种状态的任务,监控,日志)&lt;/b&gt;&lt;/font&gt;" style="rounded=0;whiteSpace=wrap;html=1;fillColor=#6a00ff;fontColor=#ffffff;strokeColor=#3700CC;" parent="1" vertex="1">
          <mxGeometry x="827" y="280" width="150" height="90" as="geometry" />
        </mxCell>
        <mxCell id="wX64DrgatRNQEiag2DZ2-28" style="edgeStyle=orthogonalEdgeStyle;rounded=0;orthogonalLoop=1;jettySize=auto;html=1;" parent="1" source="wX64DrgatRNQEiag2DZ2-27" target="wX64DrgatRNQEiag2DZ2-1" edge="1">
          <mxGeometry relative="1" as="geometry" />
        </mxCell>
        <mxCell id="wX64DrgatRNQEiag2DZ2-34" style="edgeStyle=orthogonalEdgeStyle;rounded=0;orthogonalLoop=1;jettySize=auto;html=1;" parent="1" source="wX64DrgatRNQEiag2DZ2-27" target="wX64DrgatRNQEiag2DZ2-2" edge="1">
          <mxGeometry relative="1" as="geometry" />
        </mxCell>
        <mxCell id="wX64DrgatRNQEiag2DZ2-27" value="" style="shape=actor;whiteSpace=wrap;html=1;" parent="1" vertex="1">
          <mxGeometry x="377" y="-140" width="43" height="60" as="geometry" />
        </mxCell>
        <mxCell id="wX64DrgatRNQEiag2DZ2-31" style="edgeStyle=orthogonalEdgeStyle;rounded=0;orthogonalLoop=1;jettySize=auto;html=1;shape=flexArrow;" parent="1" source="wX64DrgatRNQEiag2DZ2-30" target="wX64DrgatRNQEiag2DZ2-6" edge="1">
          <mxGeometry relative="1" as="geometry">
            <Array as="points">
              <mxPoint x="140" y="160" />
            </Array>
          </mxGeometry>
        </mxCell>
        <mxCell id="wX64DrgatRNQEiag2DZ2-32" style="edgeStyle=orthogonalEdgeStyle;rounded=0;orthogonalLoop=1;jettySize=auto;html=1;shape=flexArrow;entryX=0.393;entryY=0.022;entryDx=0;entryDy=0;entryPerimeter=0;" parent="1" source="wX64DrgatRNQEiag2DZ2-30" target="wX64DrgatRNQEiag2DZ2-26" edge="1">
          <mxGeometry relative="1" as="geometry">
            <mxPoint x="870" y="270" as="targetPoint" />
          </mxGeometry>
        </mxCell>
        <mxCell id="wX64DrgatRNQEiag2DZ2-30" value="" style="shape=actor;whiteSpace=wrap;html=1;" parent="1" vertex="1">
          <mxGeometry x="368" y="130" width="42" height="60" as="geometry" />
        </mxCell>
        <mxCell id="wX64DrgatRNQEiag2DZ2-36" value="" style="shape=flexArrow;endArrow=classic;startArrow=none;html=1;rounded=0;width=11;startSize=2.83;endSize=5.4;startFill=0;entryX=0.4;entryY=1.033;entryDx=0;entryDy=0;entryPerimeter=0;exitX=0.5;exitY=0.05;exitDx=0;exitDy=0;exitPerimeter=0;" parent="1" edge="1" target="wX64DrgatRNQEiag2DZ2-26" source="wX64DrgatRNQEiag2DZ2-5">
          <mxGeometry width="100" height="100" relative="1" as="geometry">
            <mxPoint x="900" y="400" as="sourcePoint" />
            <mxPoint x="900" y="346" as="targetPoint" />
          </mxGeometry>
        </mxCell>
        <mxCell id="wX64DrgatRNQEiag2DZ2-37" value="&lt;span style=&quot;font-size: 16px;&quot;&gt;&lt;b&gt;资源策略参数&lt;/b&gt;&lt;/span&gt;" style="rounded=0;whiteSpace=wrap;html=1;labelBorderColor=none;dashed=1;fillColor=#d80073;fontColor=#ffffff;strokeColor=#A50040;strokeWidth=2;shadow=1;glass=0;" parent="1" vertex="1">
          <mxGeometry x="840" y="592.5" width="100" height="47.5" as="geometry" />
        </mxCell>
        <mxCell id="wX64DrgatRNQEiag2DZ2-40" value="截图占位" style="whiteSpace=wrap;html=1;" parent="1" vertex="1">
          <mxGeometry x="-100" y="-100" width="120" height="60" as="geometry" />
        </mxCell>
        <mxCell id="wX64DrgatRNQEiag2DZ2-41" value="截图占位" style="whiteSpace=wrap;html=1;" parent="1" vertex="1">
          <mxGeometry x="-120" y="260" width="120" height="60" as="geometry" />
        </mxCell>
        <mxCell id="wX64DrgatRNQEiag2DZ2-42" value="截图占位" style="whiteSpace=wrap;html=1;" parent="1" vertex="1">
          <mxGeometry x="180" y="-260" width="120" height="60" as="geometry" />
        </mxCell>
        <mxCell id="wX64DrgatRNQEiag2DZ2-43" value="&lt;font style=&quot;font-size: 16px;&quot;&gt;&lt;b&gt;发起/查看/删除任务&lt;/b&gt;&lt;/font&gt;" style="text;html=1;align=center;verticalAlign=middle;resizable=0;points=[];autosize=1;strokeColor=none;fillColor=none;" parent="1" vertex="1">
          <mxGeometry x="130" y="125" width="160" height="30" as="geometry" />
        </mxCell>
        <mxCell id="wX64DrgatRNQEiag2DZ2-44" value="&lt;font style=&quot;font-size: 16px;&quot;&gt;&lt;b&gt;查看任务监控/日志&lt;/b&gt;&lt;/font&gt;" style="text;html=1;align=center;verticalAlign=middle;resizable=0;points=[];autosize=1;strokeColor=none;fillColor=none;" parent="1" vertex="1">
          <mxGeometry x="445" y="125" width="160" height="30" as="geometry" />
        </mxCell>
        <mxCell id="wX64DrgatRNQEiag2DZ2-45" value="&lt;font style=&quot;font-size: 16px;&quot;&gt;查看/删除任务&lt;/font&gt;" style="text;html=1;align=center;verticalAlign=middle;resizable=0;points=[];autosize=1;strokeColor=none;fillColor=none;" parent="1" vertex="1">
          <mxGeometry x="440" y="-150" width="120" height="30" as="geometry" />
        </mxCell>
        <mxCell id="wX64DrgatRNQEiag2DZ2-46" value="&lt;font style=&quot;font-size: 16px;&quot;&gt;发起/查看/删除任务&lt;/font&gt;" style="text;html=1;align=center;verticalAlign=middle;resizable=0;points=[];autosize=1;strokeColor=none;fillColor=none;" parent="1" vertex="1">
          <mxGeometry x="213" y="-150" width="160" height="30" as="geometry" />
        </mxCell>
        <mxCell id="wX64DrgatRNQEiag2DZ2-49" value="&lt;font style=&quot;font-size: 16px;&quot;&gt;&lt;b&gt;每周报告,包含按特定条件索引的统计信息&lt;/b&gt;&lt;/font&gt;" style="shape=note;whiteSpace=wrap;html=1;backgroundOutline=1;darkOpacity=0.05;fillColor=#f5f5f5;gradientColor=#b3b3b3;strokeColor=#666666;" parent="1" vertex="1">
          <mxGeometry x="98" y="650" width="115" height="140" as="geometry" />
        </mxCell>
        <mxCell id="wX64DrgatRNQEiag2DZ2-50" value="截图占位" style="whiteSpace=wrap;html=1;" parent="1" vertex="1">
          <mxGeometry x="300" y="1050" width="120" height="60" as="geometry" />
        </mxCell>
        <mxCell id="qPuq1UGvSkW3Ukqx3j4F-5" value="" style="shape=flexArrow;endArrow=classic;html=1;rounded=0;startArrow=none;startFill=0;exitX=1;exitY=0.5;exitDx=0;exitDy=0;exitPerimeter=0;" edge="1" parent="1" source="wX64DrgatRNQEiag2DZ2-16" target="qPuq1UGvSkW3Ukqx3j4F-6">
          <mxGeometry width="50" height="50" relative="1" as="geometry">
            <mxPoint x="440" y="710" as="sourcePoint" />
            <mxPoint x="533" y="674" as="targetPoint" />
          </mxGeometry>
        </mxCell>
        <mxCell id="qPuq1UGvSkW3Ukqx3j4F-12" style="edgeStyle=orthogonalEdgeStyle;rounded=0;orthogonalLoop=1;jettySize=auto;html=1;entryX=0.5;entryY=1;entryDx=0;entryDy=0;shape=flexArrow;" edge="1" parent="1" source="qPuq1UGvSkW3Ukqx3j4F-6" target="qPuq1UGvSkW3Ukqx3j4F-7">
          <mxGeometry relative="1" as="geometry" />
        </mxCell>
        <mxCell id="qPuq1UGvSkW3Ukqx3j4F-6" value="&lt;b&gt;&lt;font style=&quot;font-size: 16px;&quot;&gt;用户资源利用率排名计算器&lt;/font&gt;&lt;/b&gt;" style="rounded=0;whiteSpace=wrap;html=1;fillColor=#d80073;fontColor=#ffffff;strokeColor=#A50040;" vertex="1" parent="1">
          <mxGeometry x="560" y="697.5" width="150" height="70" as="geometry" />
        </mxCell>
        <mxCell id="qPuq1UGvSkW3Ukqx3j4F-18" style="edgeStyle=orthogonalEdgeStyle;rounded=0;orthogonalLoop=1;jettySize=auto;html=1;entryX=0.5;entryY=1;entryDx=0;entryDy=0;entryPerimeter=0;shape=flexArrow;" edge="1" parent="1" source="qPuq1UGvSkW3Ukqx3j4F-7" target="qPuq1UGvSkW3Ukqx3j4F-8">
          <mxGeometry relative="1" as="geometry" />
        </mxCell>
        <mxCell id="qPuq1UGvSkW3Ukqx3j4F-7" value="&lt;span style=&quot;font-size: 16px;&quot;&gt;&lt;b&gt;资源限额管理器&lt;/b&gt;&lt;/span&gt;" style="rounded=0;whiteSpace=wrap;html=1;fillColor=#d80073;fontColor=#ffffff;strokeColor=#A50040;" vertex="1" parent="1">
          <mxGeometry x="560" y="580" width="150" height="70" as="geometry" />
        </mxCell>
        <mxCell id="qPuq1UGvSkW3Ukqx3j4F-8" value="&lt;b&gt;&lt;font style=&quot;font-size: 16px;&quot;&gt;TaskQueue&lt;/font&gt;&lt;/b&gt;" style="strokeWidth=2;html=1;shape=mxgraph.flowchart.direct_data;whiteSpace=wrap;fillColor=#1ba1e2;fontColor=#ffffff;strokeColor=#006EAF;" vertex="1" parent="1">
          <mxGeometry x="560" y="460" width="150" height="60" as="geometry" />
        </mxCell>
        <mxCell id="qPuq1UGvSkW3Ukqx3j4F-10" value="" style="shape=flexArrow;endArrow=classic;html=1;rounded=0;startArrow=none;startFill=0;exitX=1;exitY=0.5;exitDx=0;exitDy=0;entryX=0;entryY=0.5;entryDx=0;entryDy=0;entryPerimeter=0;" edge="1" parent="1" source="wX64DrgatRNQEiag2DZ2-7" target="qPuq1UGvSkW3Ukqx3j4F-8">
          <mxGeometry width="50" height="50" relative="1" as="geometry">
            <mxPoint x="474" y="490" as="sourcePoint" />
            <mxPoint x="551" y="490" as="targetPoint" />
          </mxGeometry>
        </mxCell>
        <mxCell id="qPuq1UGvSkW3Ukqx3j4F-14" value="" style="shape=flexArrow;endArrow=none;html=1;rounded=0;startArrow=block;endFill=0;exitX=0;exitY=0;exitDx=115;exitDy=85;exitPerimeter=0;" edge="1" parent="1" source="wX64DrgatRNQEiag2DZ2-49" target="wX64DrgatRNQEiag2DZ2-16">
          <mxGeometry width="50" height="50" relative="1" as="geometry">
            <mxPoint x="237" y="737" as="sourcePoint" />
            <mxPoint x="317" y="737" as="targetPoint" />
            <Array as="points" />
          </mxGeometry>
        </mxCell>
        <mxCell id="qPuq1UGvSkW3Ukqx3j4F-16" value="&lt;span style=&quot;font-size: 16px;&quot;&gt;&lt;b&gt;根据排名确定限额&lt;/b&gt;&lt;/span&gt;" style="text;html=1;align=center;verticalAlign=middle;resizable=0;points=[];autosize=1;strokeColor=none;fillColor=none;" vertex="1" parent="1">
          <mxGeometry x="640" y="660" width="150" height="30" as="geometry" />
        </mxCell>
        <mxCell id="qPuq1UGvSkW3Ukqx3j4F-17" value="&lt;span style=&quot;font-size: 16px;&quot;&gt;&lt;b&gt;历史任务数据&lt;/b&gt;&lt;/span&gt;" style="text;html=1;align=center;verticalAlign=middle;resizable=0;points=[];autosize=1;strokeColor=none;fillColor=none;" vertex="1" parent="1">
          <mxGeometry x="430" y="690" width="120" height="30" as="geometry" />
        </mxCell>
        <mxCell id="qPuq1UGvSkW3Ukqx3j4F-19" value="&lt;font style=&quot;font-size: 16px;&quot;&gt;&lt;b&gt;限制任务消费&lt;/b&gt;&lt;/font&gt;" style="text;html=1;align=center;verticalAlign=middle;resizable=0;points=[];autosize=1;strokeColor=none;fillColor=none;" vertex="1" parent="1">
          <mxGeometry x="640" y="540" width="120" height="30" as="geometry" />
        </mxCell>
        <mxCell id="qPuq1UGvSkW3Ukqx3j4F-20" value="" style="shape=flexArrow;endArrow=none;html=1;rounded=0;startArrow=block;startFill=0;endFill=0;exitX=1;exitY=0.5;exitDx=0;exitDy=0;entryX=0;entryY=0.5;entryDx=0;entryDy=0;" edge="1" parent="1" source="qPuq1UGvSkW3Ukqx3j4F-7" target="wX64DrgatRNQEiag2DZ2-37">
          <mxGeometry width="50" height="50" relative="1" as="geometry">
            <mxPoint x="745" y="618" as="sourcePoint" />
            <mxPoint x="822" y="618" as="targetPoint" />
          </mxGeometry>
        </mxCell>
        <mxCell id="qPuq1UGvSkW3Ukqx3j4F-21" value="&lt;span&gt;&lt;font style=&quot;font-size: 16px;&quot;&gt;热更新&lt;/font&gt;&lt;/span&gt;" style="text;html=1;align=center;verticalAlign=middle;resizable=0;points=[];autosize=1;strokeColor=none;fillColor=none;fontStyle=1" vertex="1" parent="1">
          <mxGeometry x="740" y="580" width="70" height="30" as="geometry" />
        </mxCell>
        <mxCell id="qPuq1UGvSkW3Ukqx3j4F-27" style="edgeStyle=orthogonalEdgeStyle;rounded=0;orthogonalLoop=1;jettySize=auto;html=1;shape=flexArrow;" edge="1" parent="1" source="qPuq1UGvSkW3Ukqx3j4F-24" target="qPuq1UGvSkW3Ukqx3j4F-6">
          <mxGeometry relative="1" as="geometry" />
        </mxCell>
        <mxCell id="qPuq1UGvSkW3Ukqx3j4F-24" value="&lt;span style=&quot;font-size: 16px;&quot;&gt;&lt;b&gt;排名计算规则参数&lt;/b&gt;&lt;/span&gt;" style="rounded=0;whiteSpace=wrap;html=1;labelBorderColor=none;dashed=1;fillColor=#d80073;fontColor=#ffffff;strokeColor=#A50040;strokeWidth=2;shadow=1;glass=0;" vertex="1" parent="1">
          <mxGeometry x="840" y="708.75" width="100" height="47.5" as="geometry" />
        </mxCell>
        <mxCell id="qPuq1UGvSkW3Ukqx3j4F-26" value="&lt;span&gt;&lt;font style=&quot;font-size: 16px;&quot;&gt;热更新&lt;/font&gt;&lt;/span&gt;" style="text;html=1;align=center;verticalAlign=middle;resizable=0;points=[];autosize=1;strokeColor=none;fillColor=none;fontStyle=1" vertex="1" parent="1">
          <mxGeometry x="740" y="697.5" width="70" height="30" as="geometry" />
        </mxCell>
        <mxCell id="qPuq1UGvSkW3Ukqx3j4F-31" value="&lt;font style=&quot;font-size: 16px;&quot;&gt;&lt;b&gt;获取成功/失败/排队中任务列表&lt;/b&gt;&lt;/font&gt;" style="text;html=1;align=center;verticalAlign=middle;resizable=0;points=[];autosize=1;strokeColor=none;fillColor=none;" vertex="1" parent="1">
          <mxGeometry x="510" y="280" width="240" height="30" as="geometry" />
        </mxCell>
        <mxCell id="qPuq1UGvSkW3Ukqx3j4F-34" value="&lt;font size=&quot;1&quot; color=&quot;#4724c6&quot; style=&quot;&quot;&gt;&lt;b style=&quot;font-size: 20px;&quot;&gt;ai_queue_server&lt;/b&gt;&lt;/font&gt;" style="text;html=1;align=center;verticalAlign=middle;resizable=0;points=[];autosize=1;strokeColor=none;fillColor=none;" vertex="1" parent="1">
          <mxGeometry x="560" y="210" width="180" height="40" as="geometry" />
        </mxCell>
      </root>
    </mxGraphModel>
  </diagram>
</mxfile>
